<?xml version="1.0" standalone="no"?>
<!DOCTYPE svg PUBLIC "-//W3C//DTD SVG 1.1//EN" "http://www.w3.org/Graphics/SVG/1.1/DTD/svg11.dtd">
<svg version="1.1" xmlns="http://www.w3.org/2000/svg" viewBox="0 0 11829.80859375 7690.6796875" width="11829.80859375" height="7690.6796875"><!-- svg-source:excalidraw --><metadata></metadata><defs><style class="style-fonts">
      </style></defs><rect x="0" y="0" width="11829.80859375" height="7690.6796875" fill="#121212"></rect><g stroke-linecap="round" transform="translate(10 10) rotate(0 5904.904296875 3835.33984375)"><path d="M32 0 C2668.31 16.36, 5306.49 16.22, 11777.81 0 C11795.98 3.51, 11811.2 13.61, 11809.81 32 C11820.18 3038.19, 11817.93 6042.86, 11809.81 7638.68 C11809.47 7660.46, 11802.42 7669.2, 11777.81 7670.68 C7701.42 7751.62, 3627.15 7752.81, 32 7670.68 C8.19 7673.63, 2.74 7657.34, 0 7638.68 C-21.24 5641.67, -20.78 3644.87, 0 32 C2.48 7.74, 11.48 -0.06, 32 0" stroke="none" stroke-width="0" fill="#d3d3d3"></path><path d="M32 0 C3185.15 -5.74, 6339.71 -5.73, 11777.81 0 M32 0 C3984.86 7.59, 7937.39 7.01, 11777.81 0 M11777.81 0 C11801.05 -0.8, 11810.2 11.7, 11809.81 32 M11777.81 0 C11796.98 -0.48, 11811.88 11.54, 11809.81 32 M11809.81 32 C11817.85 1568.64, 11818.88 3103.84, 11809.81 7638.68 M11809.81 32 C11807.77 2013.38, 11807.88 3993.82, 11809.81 7638.68 M11809.81 7638.68 C11808.98 7658.17, 11798.47 7669.81, 11777.81 7670.68 M11809.81 7638.68 C11807.7 7661.8, 11798.1 7669.88, 11777.81 7670.68 M11777.81 7670.68 C9074.98 7666.41, 6372.91 7666.57, 32 7670.68 M11777.81 7670.68 C8688.3 7674.43, 5598.42 7674.7, 32 7670.68 M32 7670.68 C11.21 7672.17, -0.84 7661.79, 0 7638.68 M32 7670.68 C9.53 7672.2, -0.8 7659.87, 0 7638.68 M0 7638.68 C-13.38 5550.15, -13.25 3462.68, 0 32 M0 7638.68 C-14.8 4949.76, -14.85 2260.97, 0 32 M0 32 C1.17 12.01, 10.78 1.38, 32 0 M0 32 C1.98 9.36, 8.39 -0.72, 32 0" stroke="#d3d3d3" stroke-width="2" fill="none"></path></g></svg>